<?xml version="1.0" encoding="utf-8"?>
<!-- Generator: Adobe Illustrator 21.0.0, SVG Export Plug-In . SVG Version: 6.00 Build 0)  -->
<svg version="1.1" id="图层_1" xmlns="http://www.w3.org/2000/svg" xmlns:xlink="http://www.w3.org/1999/xlink" x="0px" y="0px"
	 viewBox="0 0 200 200" style="enable-background:new 0 0 200 200;" xml:space="preserve">
<style type="text/css">
	.st0{fill:#d7d7d7;}
	.st1{fill:#55E487;}
</style>
<path class="st0" d="M99.8,42.7c-0.2,0-0.5,0-0.6,0c-2.5,0.1-4.8,0.3-7,0.8c-9.5,1.8-15.8,6.9-19.9,13.2c-4.1,6.4-5.1,12-6.5,17.7
	l0.2,0.2c-0.4,2.3-0.7,4.2-0.8,5.9c-0.3,0.2-1.5,0.8-2.6,2.2l0,0l-0.2,0.2l-0.2,0.2L62,83.5l-0.2,0.2l-0.2,0.5l-0.2,0.3l-0.2,0.5
	l-0.1,0.3l-0.2,0.5L61,86.1c-0.1,0.2-0.2,0.4-0.2,0.5l-0.1,0.3c0,0.2,0,0.5,0,0.7v0.3c0,0.3,0,0.7,0.1,1.1c0,0-2.9,1.4-1.2,7.7
	c0,0,0.3,0.4,0.8,1.1c-2.6,3.7-11.1,16.7-8.3,28.2c0,0,0.3,0.8,1.1,0.8c0.3,0,0.6-0.1,1-0.3c1-0.6,2.3-2.5,4.6-5.2
	c0,0,0.7,12,12.2,20.6c-1,0.1-1.9,0.3-2.8,0.5c0,0-8.1,2.6-8.1,7.2s8.9,6.7,8.9,6.7s4.6,1.1,10.3,1.1c5.6,0,12.4-1,17.1-5
	c0.8-0.7,1.4-1.3,1.7-1.9c0.6,0,1.2,0.1,1.8,0.1c0,0,0.1,0,0.3,0c0.5,0,1.3,0,2.5-0.1c0.4,0.6,0.9,1.2,1.7,1.9c4.7,4,11.4,5,17.1,5
	c0.1,0,0.2,0,0.2,0c0.5,0,0.9,0,1.4,0c2.8,0,5.8-0.3,8.7-1.1h0.1h0.1l0.2-0.1c1.1-0.3,5.9-1.7,7.8-4.3l0.2-0.2
	c0.4-0.6,0.7-1.4,0.7-2.1c0-4.6-8.1-7.2-8.1-7.2c-1.2-0.3-2.6-0.5-3.8-0.6c5.6-4.3,10.4-10.6,12.1-20c0,0,3.1,4.1,5.3,5.3
	c0.3,0.2,0.6,0.2,0.8,0.2c0.3,0,0.5-0.1,0.8-0.2c0.4-0.2,0.7-1.1,0.8-2.3c0.5-4.6-1.2-15.2-6.6-23c0,0-2-2.7-3.4-4.3
	c0.1-0.4,0.2-0.7,0.2-1.1c0-3-2.3-4-2.3-4.6c0-0.7,1.4-3.2,1.2-6.6c0-0.4-0.1-0.8-0.2-1.1l-0.1-0.2c-0.1-0.2-0.2-0.5-0.3-0.7L137,83
	c-0.2-0.2-0.3-0.5-0.5-0.6l0,0c-1.1-1.2-2.5-1.6-2.5-1.6s-0.4-8.7-2.5-15.1l0.1,0.1c-0.4-1.1-0.8-2.2-1.2-3.2
	c-2-4.8-5.2-9.3-9.7-12.8c-2.7-2.1-5.9-3.8-9.7-5C107.6,43.6,103.9,42.7,99.8,42.7"/>
<path class="st1" d="M148.7,58.5L148.7,58.5c-8.7,0-15.7-7-15.7-15.7l0,0c0-8.7,7-15.7,15.7-15.7l0,0c8.7,0,15.7,7,15.7,15.7l0,0
	C164.4,51.4,157.2,58.5,148.7,58.5z"/>
</svg>
