<?xml version="1.0" standalone="no"?><!DOCTYPE svg PUBLIC "-//W3C//DTD SVG 1.1//EN" "http://www.w3.org/Graphics/SVG/1.1/DTD/svg11.dtd"><svg t="1510560935457" class="icon" style="" viewBox="0 0 1024 1024" version="1.1" xmlns="http://www.w3.org/2000/svg" p-id="2566" xmlns:xlink="http://www.w3.org/1999/xlink" width="200" height="200"><defs><style type="text/css"></style></defs><path d="M890.141137 133.331722l-138.548399-105.560685c-59.377885-46.1828-145.145942-32.987714-191.328741 26.390171l-402.450111 527.803424s-3.298771 3.298771-3.298771 6.597543c-6.597543 6.597543-9.896314 13.195086-13.195086 23.0914l-59.377885 366.163625c-3.298771 13.195086 3.298771 29.688943 13.195085 36.286486 6.597543 6.597543 16.493857 9.896314 23.0914 9.896314 6.597543 0 9.896314 0 16.493857-3.298771l349.669769-145.145942c6.597543-3.298771 13.195086-9.896314 19.792628-16.493857l3.298772-3.298771 402.450111-531.102196c49.481571-59.377885 39.585257-145.145942-19.792629-191.328741z m-715.833394 788.406365l36.286486-230.913998 184.731198 138.548398-221.017684 92.3656z m293.590655-138.548399l-227.615227-174.834885 316.682055-415.645196 227.615226 174.834884-316.682054 415.645197z m385.956254-508.010796l-32.987714 42.884028-227.615227-174.834884 32.987714-42.884028c19.792628-26.390171 52.780342-29.688943 79.170514-9.896314l138.548399 105.560684c23.0914 19.792628 26.390171 56.079114 9.896314 79.170514z" fill="#ffffff" p-id="2567"></path></svg>