<?xml version="1.0" standalone="no"?><!DOCTYPE svg PUBLIC "-//W3C//DTD SVG 1.1//EN" "http://www.w3.org/Graphics/SVG/1.1/DTD/svg11.dtd"><svg t="1514613447541" class="icon" style="" viewBox="0 0 1152 1024" version="1.1" xmlns="http://www.w3.org/2000/svg" p-id="2428" xmlns:xlink="http://www.w3.org/1999/xlink" width="225" height="200"><defs><style type="text/css"></style></defs><path d="M903.529412 120.470588V60.235294H180.705882v60.235294H0v240.941177c0 96.376471 84.329412 180.705882 180.705882 180.705882v60.235294c24.094118 90.352941 180.705882 156.611765 301.176471 180.705883v120.470588H301.176471s-60.235294 90.352941-60.235295 120.470588h602.352942c0-24.094118-60.235294-120.470588-60.235294-120.470588h-180.705883v-120.470588c120.470588-24.094118 277.082353-90.352941 301.176471-180.705883V542.117647c96.376471-12.047059 180.705882-84.329412 180.705882-180.705882V120.470588h-180.705882zM180.705882 421.647059c-30.117647 0-60.235294-30.117647-60.235294-60.235294V240.941176h60.235294v180.705883z m505.976471 150.588235L542.117647 481.882353 397.552941 566.211765l60.235294-162.635294L301.176471 301.176471h180.705882l60.235294-162.635295L602.352941 301.176471h168.658824l-138.541177 108.423529 60.235294 162.635294h-6.023529zM963.764706 361.411765c0 30.117647-30.117647 60.235294-60.235294 60.235294V240.941176h60.235294v120.470589z" p-id="2429"></path></svg>