<?xml version="1.0" encoding="utf-8"?>
<!-- Generator: Adobe Illustrator 21.0.0, SVG Export Plug-In . SVG Version: 6.00 Build 0)  -->
<svg version="1.1" id="图层_1" xmlns="http://www.w3.org/2000/svg" xmlns:xlink="http://www.w3.org/1999/xlink" x="0px" y="0px"
	 viewBox="0 0 200 200" style="enable-background:new 0 0 200 200;" xml:space="preserve">
<path d="M183.6,49.4l-33.7-33.7c-9.2-9.2-23.8-10-32.2-0.8l-93.6,93.6l-11.5,66.7c-1,5.4-0.8,3.8-0.8,7.7c0,4.6,3.8,8.4,14.6,7.7
	h104.3c4.2,0,7.7-3.4,7.7-7.7v0c0-4.2-3.4-7.7-7.7-7.7H99.1c-2.8,0-4.2-3.4-2.2-5.3l88.2-88.2C193.6,73.1,192.8,58.6,183.6,49.4
	L183.6,49.4z M84.6,159.8l-44.5-44.5l62.9-62.9l11.5,11.5l33.7,33.7L84.6,159.8L84.6,159.8z M173.6,70.8l-15.3,15.3l-44.5-44.5
	l15.3-15.3c3.1-3.1,7.7-2.3,10.7,0l33.7,33.7C176.7,63.2,176.7,67.8,173.6,70.8L173.6,70.8z"/>
<path d="M161.3,175.9h7.7c4.1,0,7.5,3.2,7.7,7.3c0.2,4.8-2.9,8-7.7,8h-7.7c-4.2,0-7.7-3.4-7.7-7.7v0
	C153.7,179.3,157.1,175.9,161.3,175.9z"/>
</svg>
