<?xml version="1.0" encoding="utf-8"?>
<!-- Generator: Adobe Illustrator 21.0.0, SVG Export Plug-In . SVG Version: 6.00 Build 0)  -->
<svg version="1.1" id="图层_1" xmlns="http://www.w3.org/2000/svg" xmlns:xlink="http://www.w3.org/1999/xlink" x="0px" y="0px"
	 viewBox="0 0 200 200" style="enable-background:new 0 0 200 200;" xml:space="preserve">
<style type="text/css">
	.st0{fill:#55E487;}
</style>
<path class="st0" d="M117.8,105.7c-6.2,4.1-8.4,12-8.4,16.2v3.1c0,5.2-4.2,9.4-9.4,9.4c-5.2,0-9.4-4.2-9.4-9.4v-3.2
	c0-9.5,5.6-19.6,12.7-25.1c10.8-8.4,15.5-11.4,15.5-21.7s-8.4-18.8-18.8-18.8c-10.3,0-18.7,8.4-18.8,18.8v3.1c0,5.2-4.2,9.4-9.4,9.4
	s-9.4-4.2-9.4-9.4V75c0-20.7,16.8-37.5,37.5-37.5c20.7,0,37.5,16.8,37.5,37.5C137.5,87.2,133.7,95.3,117.8,105.7 M100,162.5
	c-5.2,0-9.4-4.2-9.4-9.4s4.2-9.4,9.4-9.4c5.2,0,9.4,4.2,9.4,9.4S105.2,162.5,100,162.5 M100,12.5c-48.3,0-87.5,39.2-87.5,87.5
	s39.2,87.5,87.5,87.5s87.5-39.2,87.5-87.5S148.3,12.5,100,12.5"/>
</svg>
