<?xml version="1.0" encoding="utf-8"?>
<!-- Generator: Adobe Illustrator 21.0.0, SVG Export Plug-In . SVG Version: 6.00 Build 0)  -->
<svg version="1.1" id="图层_1" xmlns="http://www.w3.org/2000/svg" xmlns:xlink="http://www.w3.org/1999/xlink" x="0px" y="0px"
	 viewBox="0 0 200 200" style="enable-background:new 0 0 200 200;" xml:space="preserve">
<path d="M161.9,15.1H42.7c-6.5,0-12.3,5.5-12.3,12.3v145.8c0,4.8,3.1,9.2,7.2,11c1.7,1,3.8,1,4.8,1c2.7,0,5.8-1,8.6-3.4l7-7.7
	c2.3-2.5,6.2-2.5,8.5,0l6.4,7l0.3,0.3c2.7,2.4,5.8,3.8,8.6,3.8c3.1,0,6.5-1.4,8.9-4.1l6.3-6.9c2.3-2.5,6.3-2.5,8.6,0.1l6.3,7.2
	c4.8,4.8,12.7,4.8,17.8,0l7-7.4c2.3-2.4,6.2-2.4,8.5,0.1l6.4,7c3.1,3.8,8.2,5.1,13,3.4c4.8-1.4,8.2-6.2,8.2-11.3V27.1
	C173.8,20.6,168.4,15.1,161.9,15.1z M71.5,58.3h48.6c3.8,0,7.2,3.4,7.2,7.2c-0.3,3.8-3.4,7.2-7.2,7.2H71.5c-3.8,0-7.2-3.4-7.2-7.2
	C64.3,61.7,67.7,58.3,71.5,58.3z M133.1,106.5H71.5c-3.8,0-7.2-3.4-7.2-7.2c0-3.8,3.4-7.2,7.2-7.2h62c3.8,0,7.2,3.4,7.2,7.2
	C140.6,103.1,136.9,106.5,133.1,106.5z"/>
</svg>
