<?xml version="1.0" encoding="utf-8"?>
<!-- Generator: Adobe Illustrator 21.0.0, SVG Export Plug-In . SVG Version: 6.00 Build 0)  -->
<svg version="1.1" id="图层_1" xmlns="http://www.w3.org/2000/svg" xmlns:xlink="http://www.w3.org/1999/xlink" x="0px" y="0px"
	 viewBox="0 0 200 199.4" style="enable-background:new 0 0 200 199.4;" xml:space="preserve">
<path d="M35.1,92H72c11.2,0,20.3-9.1,20.3-20.3V37.2c0-11-8.9-19.8-19.8-19.8H35.1c-10.9-0.1-19.8,8.9-19.8,19.8V72
	C15.3,83,24.2,92,35.1,92z"/>
<path d="M184.9,72.2v-35c0-11-8.9-19.8-19.8-19.8h-36.8c-11,0-19.8,8.9-19.8,19.8v34.5c0,11.2,9.1,20.3,20.3,20.3h36.6
	C176.1,92,184.9,83,184.9,72.2z"/>
<path d="M128.2,182.6h37.7c11,0,19-8.9,19-19.8v-35c0-11-8.9-19.8-19.8-19.8h-36.6c-11.2,0-20.3,9.1-20.3,20.3v34.5
	C108.2,173.6,117.2,182.6,128.2,182.6z"/>
<path d="M35.1,182.6h37.3c11,0,19.8-8.9,19.8-19.8v-34.5c0-11.2-9.1-20.3-20.3-20.3H35.1c-10.9,0-19.8,8.9-19.8,19.8v35
	C15.3,173.6,24.2,182.6,35.1,182.6z"/>
</svg>
