<?xml version="1.0" encoding="utf-8"?>
<!-- Generator: Adobe Illustrator 21.0.0, SVG Export Plug-In . SVG Version: 6.00 Build 0)  -->
<svg version="1.1" id="图层_1" xmlns="http://www.w3.org/2000/svg" xmlns:xlink="http://www.w3.org/1999/xlink" x="0px" y="0px"
	 viewBox="0 0 200 200" style="enable-background:new 0 0 200 200;" xml:space="preserve">
<path d="M167.6,14.5H28.4c-8.4,0-13.8,6.7-13.8,15.8v139.1c0,8.9,7.1,16.2,14.9,16.2h140.1c8.9,0,16-7.8,16-15.1V34.1
	C185.5,22.5,180.6,14.5,167.6,14.5z M167,76.2c-53.1,2.2-60.2,44.7-100.4,44.7c-17.1,0-28.5-10.6-33.5-16.5V37.6
	c0-2.8,2.2-5.2,5.2-5.2h123.4c3,0,5.4,2.4,5.4,5.2V76.2z"/>
<path d="M67.7,48.7c10.6,0,19.2,8.6,19.2,19.1c0,10.7-8.6,19.1-19.2,19.1c-10.4,0-19-8.4-19-19.1C48.7,57.3,57.3,48.7,67.7,48.7
	L67.7,48.7L67.7,48.7z"/>
</svg>
