<?xml version="1.0" encoding="utf-8"?>
<!-- Generator: Adobe Illustrator 21.0.0, SVG Export Plug-In . SVG Version: 6.00 Build 0)  -->
<svg version="1.1" id="图层_1" xmlns="http://www.w3.org/2000/svg" xmlns:xlink="http://www.w3.org/1999/xlink" x="0px" y="0px"
	 viewBox="0 0 200 200" style="enable-background:new 0 0 200 200;" xml:space="preserve">
<path d="M163.8,14.8H38.2c-12,0-21.7,9.8-21.7,21.7v125.7c0,12,9.8,21.7,21.7,21.7h125.7c12,0,21.7-9.8,21.7-21.7V36.6
	C185.6,24.6,175.8,14.8,163.8,14.8z M146.4,46l-36.6,36.6l0.2,0.2h24.3c3.8,0,6.9,3.1,6.9,6.9c0,2-0.7,3.6-2,4.9
	c-1.1,1.3-2.9,2.2-4.7,2.2h-27.2l0,0l0,0h-0.2v12.9h27.3c3.8,0,6.9,3.1,6.9,6.9c0,2-0.7,3.6-2,4.9c-1.3,1.3-3.1,2-4.9,2h-27.3v34.4
	c0,3.8-3.1,6.9-6.9,6.9s-6.9-3.1-6.9-6.9v-34.4H66.1c-3.8,0-6.9-3.1-6.9-6.9c0-3.8,3.1-6.9,6.9-6.9h27.3V96.7l-0.5,0l0,0H65.7
	c-3.8,0-6.9-3.1-6.9-6.9c0-3.8,3.1-6.9,6.9-6.9H90l0.2-0.2L53.7,46c-2.7-2.7-2.7-7.1,0-9.8c2.7-2.7,7.1-2.7,9.8,0l36.6,36.4
	l36.4-36.4c2.7-2.7,7.1-2.7,9.8,0c1.3,1.3,2,3.1,2,4.9C148.4,42.9,147.7,44.7,146.4,46z"/>
</svg>
