<?xml version="1.0" standalone="no"?><!DOCTYPE svg PUBLIC "-//W3C//DTD SVG 1.1//EN" "http://www.w3.org/Graphics/SVG/1.1/DTD/svg11.dtd"><svg t="1515556732939" class="icon" style="" viewBox="0 0 1024 1024" version="1.1" xmlns="http://www.w3.org/2000/svg" p-id="1866" xmlns:xlink="http://www.w3.org/1999/xlink" width="200" height="200"><defs><style type="text/css"></style></defs><path d="M828.974 894.123H190.189c-70.551 0-127.753-57.185-127.753-127.752V606.673c0-17.635 14.309-31.933 31.932-31.933h63.889c17.635 0 31.932 14.299 31.932 31.933v95.821c0 35.282 28.596 63.878 63.877 63.878h511.032c35.281 0 63.877-28.595 63.877-63.878v-95.821c0-17.635 14.299-31.933 31.943-31.933h63.878c17.635 0 31.933 14.299 31.933 31.933v159.699c-0.002 70.566-57.192 127.751-127.755 127.751z m-59.741-460.065c-12.921 12.919-33.885 12.919-46.807 0l-148.97-148.971v321.587c0 17.635-14.301 31.948-31.933 31.948h-63.876c-17.638 0-31.945-14.313-31.945-31.948V285.086L296.731 434.058c-12.921 12.919-33.875 12.919-46.797 0L203.12 387.24c-12.921-12.922-12.921-33.874 0-46.807L466.912 76.638c1.141-1.138 21.664-13.684 42.316-13.693 20.876-0.01 41.879 12.542 43.021 13.693l263.803 263.794c12.922 12.934 12.922 33.885 0 46.807l-46.819 46.819z" fill="" p-id="1867"></path></svg>