<?xml version="1.0" encoding="utf-8"?>
<!-- Generator: Adobe Illustrator 21.0.0, SVG Export Plug-In . SVG Version: 6.00 Build 0)  -->
<svg version="1.1" id="图层_1" xmlns="http://www.w3.org/2000/svg" xmlns:xlink="http://www.w3.org/1999/xlink" x="0px" y="0px"
	 viewBox="0 0 200 200" style="enable-background:new 0 0 200 200;" xml:space="preserve">
<path d="M153.8,71.2c0-28.8-23.8-52.5-52.5-52.5S48.8,42.5,48.8,71.2c0,16.3,7.5,30,18.8,40c-23.8,12.5-38.8,36.2-38.8,63.8
	c0,6.3,5,10,10,10c6.3,0,10-5,10-10c0-28.8,23.8-52.5,52.5-52.5s52.5,23.8,52.5,52.5c0,6.3,5,10,10,10c6.3,0,10-5,10-10
	c0-27.5-16.3-52.5-38.7-63.8C146.3,101.2,153.8,86.2,153.8,71.2L153.8,71.2z M102.5,102.5c-17.5,0-31.3-13.8-31.3-31.3
	S85,40,102.5,40s31.3,13.7,31.3,31.3S118.8,102.5,102.5,102.5z"/>
</svg>
