<svg xmlns="http://www.w3.org/2000/svg" width="36" height="36" viewBox="0 0 36 36">
    <path fill="#FFF" fill-rule="evenodd" d="M17.998.016C8.06.016.001 8.064.001 17.991c0 9.927 8.058 17.975 17.997 17.975 9.94 0 17.997-8.048 17.997-17.975 0-9.927-8.058-17.975-17.997-17.975zm5.187 8.987a1.73 1.73 0 1 1 .002 3.462 1.73 1.73 0 0 1-.002-3.462zm-10.374 0a1.73 1.73 0 1 1 .002 3.462 1.73 1.73 0 0 1-.002-3.462zm5.222 17.835c-4.95 0-8.963-4.008-8.963-8.952 0-.036.01-.07.01-.105h1.753c-.001.036-.01.069-.01.105 0 3.214 3.992 7.201 7.21 7.201 3.217 0 7.21-3.987 7.21-7.201 0-.036-.011-.07-.011-.105h1.752c0 .036.01.069.01.105.003 4.944-4.01 8.952-8.96 8.952z"/>
</svg>
