<svg xmlns="http://www.w3.org/2000/svg" width="36" height="36" viewBox="0 0 36 36">
    <path fill="#FFF" fill-rule="evenodd" d="M17.991 0C8.056 0 0 8.056 0 17.991c0 9.936 8.056 17.992 17.991 17.992 9.936 0 17.992-8.056 17.992-17.992C35.983 8.056 27.927 0 17.99 0zm-6.746 8.996a2.25 2.25 0 1 1-2.249 2.249 2.25 2.25 0 0 1 2.249-2.25zm14.953 18.337a1.522 1.522 0 0 1-2.071-.598c-.075-.133-2.002-3.44-6.136-3.44-4.189 0-6.116 3.405-6.135 3.44a1.524 1.524 0 1 1-2.67-1.473c.113-.205 2.836-5.016 8.805-5.016 5.97 0 8.692 4.811 8.805 5.016a1.525 1.525 0 0 1-.598 2.071zm-1.46-13.84a2.25 2.25 0 1 1 2.249-2.249 2.25 2.25 0 0 1-2.249 2.25z"/>
</svg>
