<?xml version="1.0" encoding="utf-8"?>
<!-- Generator: Adobe Illustrator 21.0.0, SVG Export Plug-In . SVG Version: 6.00 Build 0)  -->
<svg version="1.1" id="图层_1" xmlns="http://www.w3.org/2000/svg" xmlns:xlink="http://www.w3.org/1999/xlink" x="0px" y="0px"
	 viewBox="0 0 15 8" style="enable-background:new 0 0 15 8;" xml:space="preserve">
<path fill="#ffffff" d="M0.7,1.1c0-0.3,0.1-0.5,0.3-0.7C1.4,0,2,0,2.4,0.4l5.4,5.2l5.4-5.2c0.4-0.4,1-0.4,1.4,0c0.4,0.4,0.4,1,0,1.4c0,0,0,0,0,0
	L8.5,7.6C8.3,7.8,8,7.9,7.8,7.9c-0.3,0-0.5-0.1-0.7-0.3L1,1.7C0.8,1.6,0.7,1.3,0.7,1.1z"/>
</svg>
