<svg xmlns="http://www.w3.org/2000/svg" width="28" height="28" viewBox="0 0 28 28">
    <path fill="#FFF" fill-rule="evenodd" d="M10.385 22.71c-.906 0-1.64.735-1.64 1.642a1.641 1.641 0 1 0 3.281 0c0-.907-.733-1.643-1.64-1.643zm11.487 0c-.906 0-1.64.735-1.64 1.642a1.641 1.641 0 1 0 3.281 0c0-.907-.733-1.643-1.64-1.643zm3.495-16.515a2.137 2.137 0 0 0-1.622-.73H7.305l-.06-.335C7.103 3.935 6.052 3 4.854 3H3.821a.82.82 0 1 0 0 1.643h1.032c.357 0 .722.325.77.725l.793 4.582 1.391 9.809c.145 1.195 1.184 2.134 2.367 2.134h13.34a.82.82 0 1 0 0-1.643h-13.34c-.35 0-.694-.324-.74-.705l-.136-.958 13.018-.806c1.182 0 2.221-.937 2.36-2.09L25.97 8.29c.096-.791-.124-1.553-.603-2.095z"/>
</svg>
