<svg xmlns="http://www.w3.org/2000/svg" width="25" height="16" viewBox="0 0 25 16">
    <path fill="#FFF" fill-rule="evenodd" d="M9.153 15.992c-.438 0-.817-.198-.906-.635L7.019 9.379l-.809 1.42c-.166.286-.47.49-.796.49H.942a.933.933 0 0 1-.925-.94c0-.52.414-.942.925-.942h3.944l1.758-3.021A.946.946 0 0 1 7.12 5.36a.914.914 0 0 1 1.1.186.953.953 0 0 1 .125 1.127l.743 3.654L10.784.762a.917.917 0 0 1 .91-.76h.005c.449 0 .832.317.907.767l1.81 10.737.582-1.5c.138-.36.48-.6.86-.6h8.207c.511 0 .925.422.925.941 0 .52-.414.941-.925.941h-7.58l-1.564 4.024a.923.923 0 0 1-.956.591.931.931 0 0 1-.816-.778l-1.476-8.773-1.61 8.981c-.079.443-.455.66-.898.66h-.012z"/>
</svg>
