<svg xmlns="http://www.w3.org/2000/svg" width="64" height="75" viewBox="0 0 64 75">
    <path fill="#434343" fill-rule="evenodd" d="M58.633.002H5.402C2.462.002.078 2.399.078 5.356v69.6l5.324-5.354 5.323 5.354 5.323-5.354 5.323 5.354 5.323-5.354 5.323 5.354 5.323-5.354 5.323 5.354 5.324-5.354 5.323 5.354 5.323-5.354 5.323 5.354v-69.6c0-2.957-2.383-5.354-5.323-5.354zM53.31 53.54H10.725v-5.354H53.31v5.354zm0-10.707H10.725v-5.354H53.31v5.354zm0-10.708H10.725V26.77H53.31v5.354zm0-10.708H10.725v-5.354H53.31v5.354z"/>
</svg>
