<?xml version="1.0" encoding="utf-8"?>
<!-- Generator: Adobe Illustrator 21.0.0, SVG Export Plug-In . SVG Version: 6.00 Build 0)  -->
<svg version="1.1" id="图层_1" xmlns="http://www.w3.org/2000/svg" xmlns:xlink="http://www.w3.org/1999/xlink" x="0px" y="0px"
	 viewBox="0 0 200 200" style="enable-background:new 0 0 200 200;" xml:space="preserve">
<path d="M170.9,54.8H28.2c-4.2,0-7.6-3.4-7.6-7.6V28.5c0-4.2,3.4-7.6,7.6-7.6h142.6c4.2,0,7.6,3.4,7.6,7.6v18.6
	C178.5,51.3,175.1,54.8,170.9,54.8z"/>
<path d="M170.9,116.6H28.2c-4.2,0-7.6-3.4-7.6-7.6V90.3c0-4.2,3.4-7.6,7.6-7.6h142.6c4.2,0,7.6,3.4,7.6,7.6V109
	C178.5,113.2,175.1,116.6,170.9,116.6z"/>
<path d="M170.9,178.5H28.2c-4.2,0-7.6-3.4-7.6-7.6v-18.6c0-4.2,3.4-7.6,7.6-7.6h142.6c4.2,0,7.6,3.4,7.6,7.6v18.6
	C178.5,175.1,175.1,178.5,170.9,178.5z"/>
</svg>
