<?xml version="1.0" encoding="utf-8"?>
<!-- Generator: Adobe Illustrator 21.0.0, SVG Export Plug-In . SVG Version: 6.00 Build 0)  -->
<svg version="1.1" id="图层_1" xmlns="http://www.w3.org/2000/svg" xmlns:xlink="http://www.w3.org/1999/xlink" x="0px" y="0px"
	 viewBox="0 0 200 200" style="enable-background:new 0 0 200 200;" xml:space="preserve">
<path d="M170.8,113h-50.1c-4.3,0-7.7,3.4-7.7,7.7v50.1c0,4.3,3.4,7.7,7.7,7.7h50.1c4.3,0,7.7-3.4,7.7-7.7v-50.1
	C178.5,116.4,175,113,170.8,113z M79.3,113H29.2c-4.3,0-7.7,3.4-7.7,7.7v50.1c0,4.3,3.4,7.7,7.7,7.7h50.1c4.3,0,7.7-3.4,7.7-7.7
	v-50.1C87,116.4,83.6,113,79.3,113z M170.8,21.5h-50.1c-4.3,0-7.7,3.4-7.7,7.7v50c0,4.3,3.4,7.7,7.7,7.7h50.1c4.3,0,7.7-3.4,7.7-7.7
	v-50C178.5,25,175,21.5,170.8,21.5z M80.1,20.6H28.5c-4.4,0-7.9,3.6-7.9,7.9v51.6c0,4.4,3.6,7.9,7.9,7.9h51.6c4.4,0,7.9-3.6,7.9-7.9
	V28.5C88,24.1,84.4,20.5,80.1,20.6z"/>
</svg>
