<svg xmlns="http://www.w3.org/2000/svg" width="30" height="26" viewBox="0 0 30 26">
    <path fill="#fff" fill-rule="``ยก1ยก123" d="M15 6.612c-4.143 0-7.5 3.382-7.5 7.556 0 4.172 3.357 7.555 7.5 7.555 4.142 0 7.5-3.383 7.5-7.555 0-4.173-3.358-7.556-7.5-7.556zm4.27 11.244a5.594 5.594 0 0 1-7.93.614c-2.36-2.037-2.632-5.614-.61-7.99a5.594 5.594 0 0 1 7.93-.613c2.359 2.035 2.632 5.613.61 7.989zM15 10.39a.47.47 0 0 1 .469.472.47.47 0 0 1-.469.472c-1.553 0-2.812 1.269-2.813 2.833v.002c0 .26-.21.472-.468.472a.471.471 0 0 1-.469-.472v-.002c0-2.086 1.68-3.777 3.75-3.777zm12.649-4.684l-4.063-.683-1.288-3.243A2.801 2.801 0 0 0 19.688 0h-9.375C9.158 0 8.131.699 7.7 1.781L6.414 5.024l-4.062.682A2.817 2.817 0 0 0 0 8.5v14.167C0 24.229 1.262 25.5 2.813 25.5h24.375c1.55 0 2.812-1.271 2.812-2.833V8.5c0-1.391-.99-2.566-2.351-2.794zm.476 16.96a.94.94 0 0 1-.938.945H2.813a.94.94 0 0 1-.937-.944V8.5c0-.462.332-.856.784-.931l5.104-.857 1.679-4.23a.94.94 0 0 1 .87-.593h9.376c.382 0 .726.235.87.594l1.679 4.23 5.104.856c.452.075.784.47.784.931v14.167z" opacity="1"/>
</svg>
